<svg xmlns="http://www.w3.org/2000/svg" viewBox="0 0 480 130" width="480" height="130">
  <!-- Elephant silhouette in dark blue -->
  <g transform="translate(8, 5) scale(0.125)">
    <path d="M1223.045,512.062c-9.547-34.431-20-77.516-46.589-102.581-12.545-11.865-31.039-18.382-47.606-23.016-14.458-4.033-25.04-12.659-36.762-22.415-43.49-11.725-77.225-34.781-118.954-50.97-28.864-18.145-62.29-29.742-96.29-29.742-20.8,5.2-34.584,15.784-51.417,27.886-15.507,11.122-22.347,13.035-42,17-38,7.675-72.617,20.18-111.974,15.464-40.212-4.842-78.314-19-117.937-26.7-36.121-7.035-73.846,3.7-107.846,16.8-71.137,27.427-138.131,78.815-179.149,143.548-22.682,32.855-44.637,66.366-56.653,104.789-4.034,40.208-3.516,80.783-1.884,121.118,1.829,45.079,8.166,88.99,12.728,133.792,1.021,10.019-9.81,79.246,8.99,80.7,5.554-12.951,9.518-29.282,6.014-43.293-3.991-15.967-.223-32.354-.14-49.27.168-36.679-4.925-73.246-3.041-109.939,1.48,39.374,9.126,77.893,16.984,116.416,7.049,34.558,16.861,67.189,5.025,101.244-21.73,62.556-53.8,122.459-45.234,189.785,1.9,14.906-2.415,25.571-4,39.863-1.509,13.48,8.067,20.935,14.472,31.319,33.358,16.356,65.583,15.91,100.015,6.28,31.963-8.961,33.232-12.617,33.092-41.675-4.422-1.869-39.469-35.424-36.805-38.242,16.053-2.067,60.155-6.057,54.432-31.068-6.237-27.272-40.04-36.373-40.934-63.087-1.032-30.537,24.2-54.318,44.593-74.67,20.586-20.572,33.092-40.838,35.367-70.482,6.628-10.385,9-23.976,18.716-32.268,9.545-8.178,29.993-1.981,42.107-2.624,33.246-1.676,66.895-.781,100.169.057,32.869.809,60.224-7.063,89.645-21.913,12.437-6.282,66.24-41.312,73.386-24.647,4.845,11.276,4.13,24.59,4.968,36.567.826,11.751,6.826,15.938,10.859,26.434,2.135,25.148,8.458,49.8,9.924,75.033,1.535,26.6,3.056,53.595,3.965,80.223.837,24.145-11.319,34.5-13.889,55.716-1.758-.083,10.2,19.122,13.609,21.1,10.831,6.28,18,4.69,16.538,19.68-1.506,15.521-20.46,32.046-9.964,47.621,23.49,34.835,88.779,32.1,123.059,19.205,34.055-12.814,6.406-46.757-10.133-66.045-15.215-17.78,1.729-15.324,1.424-31.654-2.164-10.245-3.433-14.767-9.925-22.639-6.851-8.317-2.667-17.056-2.638-26.992.169-52.142,6.98-105.934,15.187-157.545,8.221-51.725,6.014-104.259,12.2-156.319,3.714-31.319,15.215-40.992,43.994-52.771,19.385-7.941,40.1-18.451,60.42-23.545,18.088-4.55,38.674,10.385,58.242,11,24.648.781,36.453,24.227,43.434,46.489,37.153,33.789,10.873,103.185,12.728,148.684,7.174,54.458,17.933,108.445,20.823,163.268,1.884,35.647-7.983,34.921-30.719,56.219-16.844.306-23.224,22.8-8.749,20.992,17.207-2.178-11.474,30.23,8.318,25.122,15.618-4.021,31.305-19.874,47.16-23.447,39.763-34.867,38.171-89.885,40.795-138.009,2.7-49.349,2.135-101.884,11.585-150.873,18.033,8.54,96.848,73.86,114.712,33.971-17.739-10.553-40.614-9.518-55.229-26.908,3.533-.169,21.495,3.349,19.82-5.64-4.731-5.442-13.2-3.767-18.394-8.512-15.927-6.589-39.151-16.89-48.152-32.549C1239.6,680.1,1246.046,594.982,1223.045,512.062Z" transform="translate(-205.147 -283.338)" fill="#2B4F72"/>
  </g>
  <!-- White lambda on the elephant's flank (screen coords) -->
  <text x="48" y="60" font-family="serif" font-size="50"  fill="white">λ</text>
  <!-- Text -->
  <text x="165" y="68" font-family="system-ui, -apple-system, sans-serif" font-size="46" font-weight="700" fill="#2d2d2d" letter-spacing="-1">lean-pq</text>
  <text x="165" y="92" font-family="system-ui, -apple-system, sans-serif" font-size="14" fill="#666" letter-spacing="0.5">type-safe PostgreSQL for Lean 4</text>
</svg>
